<svg width="275" height="40" viewBox="0 0 275 40" fill="none" xmlns="http://www.w3.org/2000/svg">
<g clip-path="url(#clip0_414_1033)">
<path d="M193.85 37.37H257.75C260.07 37.37 262.368 36.913 264.512 36.025C266.656 35.137 268.604 33.8354 270.245 32.1946C271.885 30.5538 273.187 28.6058 274.075 26.462C274.963 24.3182 275.42 22.0205 275.42 19.7C275.424 17.377 274.97 15.0761 274.084 12.9288C273.197 10.7815 271.896 8.83002 270.255 7.18603C268.614 5.54203 266.665 4.23779 264.519 3.34791C262.373 2.45804 260.073 2 257.75 2L193.85 2C191.527 2 189.227 2.45804 187.081 3.34791C184.935 4.23779 182.986 5.54203 181.345 7.18603C179.704 8.83002 178.403 10.7815 177.516 12.9288C176.63 15.0761 176.176 17.377 176.18 19.7C176.18 24.3864 178.042 28.8808 181.355 32.1946C184.669 35.5083 189.164 37.37 193.85 37.37ZM12.1 37.42H19.9V8.92H30V2H2V8.9H12.1V37.42ZM40.2 37.42H48V10.25H48.1L57.05 37.4H63.05L72.3 10.25H72.4V37.4H80.2V2H68.45L60.25 25.1H60.15L52 2H40.2V37.42ZM91.14 2.12H102.84C105.564 2.12419 108.277 2.45999 110.92 3.12C113.327 3.69095 115.595 4.73822 117.59 6.2C119.52 7.65108 121.073 9.54408 122.12 11.72C123.303 14.3051 123.875 17.1282 123.79 19.97C123.844 22.588 123.29 25.1828 122.17 27.55C121.127 29.6801 119.633 31.5571 117.79 33.05C115.904 34.5623 113.75 35.7056 111.44 36.42C108.999 37.1951 106.451 37.5832 103.89 37.57H91.14V2.12ZM98.94 30.32H102.94C104.622 30.3315 106.3 30.1469 107.94 29.77C109.403 29.4731 110.787 28.8698 112 28C113.158 27.1236 114.079 25.9722 114.68 24.65C115.382 23.0506 115.724 21.3162 115.68 19.57C115.71 18.0054 115.367 16.4561 114.68 15.05C114.056 13.8039 113.157 12.7164 112.05 11.87C110.9 11.0157 109.601 10.3816 108.22 10C106.697 9.57407 105.122 9.36204 103.54 9.37H98.94V30.32ZM135.09 2.12H148.29C149.839 2.12076 151.386 2.23103 152.92 2.45C154.375 2.63846 155.786 3.07834 157.09 3.75C158.308 4.38214 159.342 5.31928 160.09 6.47C160.92 7.8742 161.32 9.49089 161.24 11.12C161.309 12.9341 160.715 14.7112 159.57 16.12C158.401 17.4736 156.861 18.4541 155.14 18.94V19C156.247 19.1581 157.321 19.4959 158.32 20C159.242 20.463 160.072 21.0899 160.77 21.85C161.461 22.6112 161.995 23.5016 162.34 24.47C162.712 25.4954 162.899 26.5791 162.89 27.67C162.95 29.3131 162.533 30.9385 161.69 32.35C160.906 33.5787 159.844 34.6062 158.59 35.35C157.272 36.1412 155.828 36.6994 154.32 37C152.765 37.3333 151.18 37.5009 149.59 37.5H135.09V2.12ZM142.89 16.27H148.54C149.139 16.2733 149.737 16.2061 150.32 16.07C150.878 15.9488 151.41 15.7287 151.89 15.42C152.359 15.1178 152.746 14.7059 153.02 14.22C153.313 13.6663 153.458 13.0462 153.44 12.42C153.472 11.7836 153.319 11.1515 153 10.6C152.69 10.1275 152.267 9.73922 151.77 9.47C151.213 9.19022 150.616 8.99796 150 8.9C149.39 8.78211 148.771 8.72185 148.15 8.72H142.85L142.89 16.27ZM142.89 30.92H149.89C150.506 30.9216 151.119 30.8546 151.72 30.72C152.317 30.5979 152.884 30.3601 153.39 30.02C153.895 29.687 154.315 29.2422 154.62 28.72C154.948 28.1238 155.111 27.4504 155.09 26.77C155.117 26.0522 154.898 25.3468 154.47 24.77C154.05 24.251 153.507 23.8453 152.89 23.59C152.249 23.3231 151.577 23.1383 150.89 23.04C150.211 22.9436 149.526 22.8934 148.84 22.89H142.94L142.89 30.92Z" fill="url(#paint0_linear_414_1033)"/>
</g>
<defs>
<linearGradient id="paint0_linear_414_1033" x1="2" y1="19.76" x2="275.42" y2="19.76" gradientUnits="userSpaceOnUse">
<stop stop-color="#90CEA1"/>
<stop offset="0.56" stop-color="#3CBEC9"/>
<stop offset="1" stop-color="#00B3E5"/>
</linearGradient>
<clipPath id="clip0_414_1033">
<rect width="275" height="40" fill="white"/>
</clipPath>
</defs>
</svg>
